<svg width="199" height="38" viewBox="0 0 199 38" fill="none" xmlns="http://www.w3.org/2000/svg">
<path d="M14.8925 20.4739L14.8388 17.4725L38.2797 37.3568H27.9571L7.09681 19.134L25.6453 2.67983H35.8066L14.8925 20.4739ZM0 2.67983H7.15057V37.3568H0V2.67983Z" fill="black"/>
<path d="M54.9515 38C51.5823 38 48.6074 37.464 46.0268 36.3921C43.4819 35.3202 41.4927 33.7659 40.059 31.7292C38.6253 29.6568 37.9084 27.1199 37.9084 24.1185C37.9084 21.1171 38.6253 18.5802 40.059 16.5078C41.4927 14.3996 43.4819 12.8096 46.0268 11.7377C48.6074 10.6657 51.5823 10.1298 54.9515 10.1298C58.3207 10.1298 61.2598 10.6657 63.7688 11.7377C66.3136 12.8096 68.3028 14.3996 69.7365 16.5078C71.1702 18.5802 71.8871 21.1171 71.8871 24.1185C71.8871 27.1199 71.1702 29.6568 69.7365 31.7292C68.3028 33.7659 66.3136 35.3202 63.7688 36.3921C61.2598 37.464 58.3207 38 54.9515 38ZM54.9515 32.6403C56.8153 32.6403 58.482 32.3188 59.9516 31.6756C61.4569 30.9967 62.6397 30.032 63.5 28.7814C64.3602 27.4951 64.7903 25.9408 64.7903 24.1185C64.7903 22.2962 64.3602 20.7419 63.5 19.4556C62.6397 18.1335 61.4749 17.1331 60.0053 16.4542C58.5358 15.7753 56.8512 15.4358 54.9515 15.4358C53.0877 15.4358 51.4031 15.7753 49.8977 16.4542C48.3924 17.1331 47.1916 18.1157 46.2956 19.402C45.4354 20.6883 45.0052 22.2605 45.0052 24.1185C45.0052 25.9408 45.4354 27.4951 46.2956 28.7814C47.1558 30.032 48.3386 30.9967 49.844 31.6756C51.3494 32.3188 53.0519 32.6403 54.9515 32.6403Z" fill="black"/>
<path d="M90.0647 37.9464C87.3765 37.9464 84.9392 37.3747 82.7528 36.2313C80.6023 35.0522 78.8998 33.4264 77.6453 31.354C76.3908 29.2459 75.7635 26.8162 75.7635 24.0649C75.7635 21.2421 76.3729 18.7945 77.5915 16.7221C78.846 14.6497 80.5485 13.0418 82.6991 11.8984C84.8496 10.7193 87.3048 10.1298 90.0647 10.1298C92.4661 10.1298 94.5091 10.4871 96.1937 11.2017C97.8783 11.9163 99.2404 12.9168 100.28 14.2031C101.319 15.4537 102.072 16.9187 102.538 18.598C103.04 20.2774 103.291 22.0997 103.291 24.0649C103.291 25.637 103.04 27.2449 102.538 28.8886C102.036 30.4965 101.265 31.9972 100.226 33.3907C99.1866 34.7485 97.8246 35.8561 96.14 36.7137C94.4554 37.5355 92.4303 37.9464 90.0647 37.9464ZM92.3228 32.5867C94.4375 32.5867 96.2654 32.2294 97.8067 31.5148C99.3479 30.8002 100.531 29.7997 101.355 28.5134C102.179 27.2271 102.592 25.7442 102.592 24.0649C102.592 22.2426 102.162 20.7062 101.301 19.4556C100.477 18.1693 99.2941 17.1866 97.7529 16.5078C96.2475 15.8289 94.4375 15.4894 92.3228 15.4894C89.3478 15.4894 87.036 16.2755 85.3872 17.8477C83.7385 19.4198 82.9141 21.4922 82.9141 24.0649C82.9141 25.78 83.3084 27.2807 84.0969 28.567C84.8854 29.8176 85.9786 30.8002 87.3765 31.5148C88.8102 32.2294 90.459 32.5867 92.3228 32.5867ZM102.592 0H109.581V37.3568H103.075C102.968 36.535 102.86 35.481 102.753 34.1946C102.645 32.8726 102.592 31.6399 102.592 30.4965V0Z" fill="black"/>
<path d="M141.469 28.5134H148.243C147.957 30.3357 147.186 31.9614 145.931 33.3907C144.713 34.8199 143.046 35.9455 140.931 36.7673C138.817 37.5891 136.236 38 133.189 38C129.784 38 126.774 37.464 124.157 36.3921C121.541 35.2844 119.498 33.6944 118.028 31.622C116.559 29.5496 115.824 27.0484 115.824 24.1185C115.824 21.1885 116.541 18.6874 117.974 16.615C119.408 14.5068 121.397 12.8989 123.942 11.7913C126.523 10.6836 129.534 10.1298 132.974 10.1298C136.487 10.1298 139.408 10.6836 141.738 11.7913C144.068 12.8989 145.788 14.5783 146.899 16.8293C148.046 19.0447 148.53 21.8853 148.351 25.3512H122.867C123.046 26.709 123.548 27.9417 124.372 29.0494C125.232 30.157 126.379 31.0324 127.813 31.6756C129.283 32.3188 131.021 32.6403 133.028 32.6403C135.25 32.6403 137.096 32.2652 138.566 31.5148C140.071 30.7287 141.039 29.7283 141.469 28.5134ZM132.652 15.4358C130.071 15.4358 127.974 16.0075 126.361 17.1509C124.749 18.2586 123.709 19.6342 123.243 21.2779H141.415C141.236 19.4913 140.376 18.0799 138.835 17.0437C137.329 15.9718 135.268 15.4358 132.652 15.4358Z" fill="black"/>
<path d="M169.304 38C165.935 38 162.96 37.464 160.38 36.3921C157.835 35.3202 155.846 33.7659 154.412 31.7292C152.978 29.6568 152.261 27.1199 152.261 24.1185C152.261 21.1171 152.978 18.5802 154.412 16.5078C155.846 14.3996 157.835 12.8096 160.38 11.7377C162.96 10.6657 165.935 10.1298 169.304 10.1298C172.674 10.1298 175.613 10.6657 178.122 11.7377C180.666 12.8096 182.656 14.3996 184.089 16.5078C185.523 18.5802 186.24 21.1171 186.24 24.1185C186.24 27.1199 185.523 29.6568 184.089 31.7292C182.656 33.7659 180.666 35.3202 178.122 36.3921C175.613 37.464 172.674 38 169.304 38ZM169.304 32.6403C171.168 32.6403 172.835 32.3188 174.304 31.6756C175.81 30.9967 176.993 30.032 177.853 28.7814C178.713 27.4951 179.143 25.9408 179.143 24.1185C179.143 22.2962 178.713 20.7419 177.853 19.4556C176.993 18.1335 175.828 17.1331 174.358 16.4542C172.889 15.7753 171.204 15.4358 169.304 15.4358C167.441 15.4358 165.756 15.7753 164.251 16.4542C162.745 17.1331 161.544 18.1157 160.648 19.402C159.788 20.6883 159.358 22.2605 159.358 24.1185C159.358 25.9408 159.788 27.4951 160.648 28.7814C161.509 30.032 162.691 30.9967 164.197 31.6756C165.702 32.3188 167.405 32.6403 169.304 32.6403Z" fill="black"/>
<path d="M199 31.2468V37.3568H190.882V31.2468H199Z" fill="#FF5C00"/>
</svg>
